<svg width="513" height="148" viewBox="0 0 513 148" fill="none" xmlns="http://www.w3.org/2000/svg">
<path d="M509.848 130.898C509.848 138.78 503.33 145.165 495.268 145.165H18.136C10.0779 145.165 3.53711 138.78 3.53711 130.898V17.1213C3.53711 9.24266 10.0779 2.83545 18.136 2.83545H495.265C503.33 2.83545 509.844 9.24266 509.844 17.1213L509.848 130.898Z" fill="black"/>
<path d="M493.729 3.0073C502.509 3.0073 509.654 9.973 509.654 18.5334V129.467C509.654 138.027 502.509 144.993 493.729 144.993H19.6553C10.8755 144.993 3.7312 138.027 3.7312 129.467V18.5334C3.7312 9.973 10.8755 3.0073 19.6553 3.0073H493.729ZM493.729 0.0444642H19.6553C9.23046 0.0444642 0.692383 8.36909 0.692383 18.5334V129.467C0.692383 139.631 9.23046 147.956 19.6553 147.956H493.729C504.154 147.956 512.692 139.631 512.692 129.467V18.5334C512.692 8.36909 504.154 0.0444642 493.729 0.0444642Z" fill="#A6A6A6"/>
<path d="M114.958 73.2012C114.848 61.2833 124.966 55.4851 125.429 55.2152C119.698 47.069 110.816 45.956 107.695 45.8672C100.235 45.1018 92.9986 50.2195 89.1984 50.2195C85.3224 50.2195 79.4704 45.9412 73.1634 46.0669C65.0472 46.1889 57.4544 50.7705 53.2902 57.885C44.6962 72.3914 51.1056 93.7091 59.3394 105.435C63.4581 111.177 68.2709 117.589 74.5704 117.364C80.7334 117.116 83.0355 113.533 90.4728 113.533C97.8418 113.533 100.004 117.364 106.428 117.22C113.042 117.116 117.207 111.451 121.181 105.657C125.941 99.0745 127.853 92.5923 127.928 92.2595C127.773 92.2078 115.083 87.4857 114.958 73.2012Z" fill="white"/>
<path d="M102.821 38.1537C106.136 34.112 108.404 28.6134 107.775 23.0334C102.977 23.2405 96.977 26.269 93.522 30.2219C90.4652 33.7052 87.7345 39.4146 88.4399 44.7838C93.8292 45.1757 99.3626 42.1325 102.821 38.1537Z" fill="white"/>
<path d="M204.144 116.539H195.531L190.813 102.085H174.414L169.92 116.539H161.534L177.782 67.3291H187.817L204.144 116.539ZM189.391 96.0202L185.124 83.1704C184.673 81.8577 183.827 78.7663 182.579 73.9001H182.428C181.931 75.993 181.13 79.0843 180.031 83.1704L175.84 96.0202H189.391V96.0202Z" fill="white"/>
<path d="M245.927 98.3611C245.927 104.396 244.255 109.166 240.91 112.668C237.913 115.785 234.193 117.342 229.752 117.342C224.958 117.342 221.514 115.663 219.417 112.305H219.265V130.998H211.179V92.7368C211.179 88.9428 211.077 85.0491 210.88 81.0555H217.991L218.442 86.6798H218.594C221.291 82.4422 225.383 80.327 230.874 80.327C235.168 80.327 238.752 81.9799 241.619 85.2894C244.494 88.6027 245.927 92.9586 245.927 98.3611ZM237.69 98.6495C237.69 95.1958 236.893 92.3485 235.293 90.1077C233.544 87.7707 231.197 86.6022 228.254 86.6022C226.259 86.6022 224.446 87.253 222.827 88.5361C221.203 89.8303 220.141 91.5202 219.645 93.6131C219.394 94.5894 219.269 95.3881 219.269 96.0167V101.933C219.269 104.514 220.081 106.692 221.704 108.471C223.327 110.249 225.436 111.137 228.03 111.137C231.075 111.137 233.446 109.991 235.141 107.705C236.84 105.416 237.69 102.399 237.69 98.6495Z" fill="white"/>
<path d="M287.784 98.3612C287.784 104.396 286.111 109.166 282.762 112.668C279.77 115.785 276.05 117.342 271.608 117.342C266.815 117.342 263.371 115.663 261.277 112.306H261.126V130.998H253.04V92.7369C253.04 88.943 252.937 85.0492 252.74 81.0556H259.851L260.303 86.6799H260.454C263.147 82.4423 267.239 80.3271 272.735 80.3271C277.024 80.3271 280.608 81.9801 283.483 85.2896C286.346 88.6028 287.784 92.9588 287.784 98.3612ZM279.546 98.6496C279.546 95.1959 278.746 92.3486 277.146 90.1078C275.397 87.7708 273.057 86.6023 270.11 86.6023C268.112 86.6023 266.303 87.2531 264.679 88.5362C263.056 89.8304 261.998 91.5203 261.501 93.6133C261.255 94.5895 261.126 95.3882 261.126 96.0168V101.933C261.126 104.514 261.937 106.692 263.553 108.471C265.176 110.246 267.285 111.137 269.887 111.137C272.932 111.137 275.302 109.991 276.998 107.705C278.697 105.417 279.546 102.399 279.546 98.6496Z" fill="white"/>
<path d="M334.586 102.739C334.586 106.925 333.096 110.331 330.103 112.96C326.815 115.833 322.237 117.268 316.355 117.268C310.924 117.268 306.57 116.247 303.274 114.202L305.148 107.631C308.698 109.724 312.593 110.775 316.837 110.775C319.882 110.775 322.253 110.102 323.955 108.763C325.651 107.424 326.496 105.627 326.496 103.386C326.496 101.39 325.799 99.7071 324.399 98.3426C323.007 96.9781 320.682 95.7098 317.436 94.5376C308.599 91.3242 304.185 86.617 304.185 80.4269C304.185 76.3815 305.732 73.0646 308.831 70.4835C311.918 67.8988 316.036 66.6083 321.187 66.6083C325.78 66.6083 329.595 67.3885 332.64 68.9453L330.619 75.372C327.775 73.8633 324.558 73.109 320.959 73.109C318.115 73.109 315.892 73.7931 314.299 75.1538C312.953 76.3704 312.278 77.8532 312.278 79.6097C312.278 81.5547 313.048 83.1632 314.595 84.4279C315.942 85.5964 318.388 86.861 321.938 88.2255C326.28 89.9302 329.47 91.9233 331.522 94.2085C333.566 96.4863 334.586 99.3373 334.586 102.739Z" fill="white"/>
<path d="M361.32 86.9717H352.408V104.2C352.408 108.582 353.978 110.771 357.126 110.771C358.571 110.771 359.769 110.649 360.717 110.405L360.941 116.391C359.348 116.972 357.251 117.264 354.653 117.264C351.459 117.264 348.964 116.314 347.162 114.417C345.369 112.516 344.466 109.328 344.466 104.85V86.9643H339.156V81.0479H344.466V74.5509L352.408 72.2139V81.0479H361.32V86.9717Z" fill="white"/>
<path d="M401.532 98.5051C401.532 103.959 399.932 108.437 396.738 111.939C393.39 115.545 388.945 117.342 383.404 117.342C378.064 117.342 373.812 115.615 370.642 112.161C367.471 108.707 365.886 104.348 365.886 99.0931C365.886 93.5945 367.517 89.0906 370.79 85.5888C374.055 82.0833 378.462 80.3306 384.003 80.3306C389.343 80.3306 393.64 82.0574 396.883 85.5149C399.985 88.8687 401.532 93.1988 401.532 98.5051ZM393.143 98.7603C393.143 95.4878 392.426 92.6811 390.974 90.3405C389.278 87.508 386.855 86.0954 383.715 86.0954C380.464 86.0954 377.995 87.5117 376.3 90.3405C374.848 92.6848 374.131 95.5358 374.131 98.9082C374.131 102.181 374.848 104.987 376.3 107.324C378.049 110.157 380.491 111.569 383.643 111.569C386.73 111.569 389.153 110.127 390.902 107.25C392.392 104.865 393.143 102.029 393.143 98.7603Z" fill="white"/>
<path d="M427.816 87.9888C427.016 87.8446 426.162 87.7707 425.267 87.7707C422.423 87.7707 420.223 88.8171 418.676 90.9138C417.329 92.7626 416.654 95.0996 416.654 97.9211V116.539H408.572L408.648 92.2302C408.648 88.1404 408.546 84.4168 408.345 81.0592H415.388L415.683 87.8483H415.907C416.761 85.515 418.107 83.6365 419.95 82.2277C421.752 80.9593 423.697 80.327 425.795 80.327C426.542 80.327 427.217 80.3788 427.816 80.4712V87.9888Z" fill="white"/>
<path d="M463.978 97.1185C463.978 98.5311 463.883 99.7218 463.682 100.694H439.425C439.52 104.2 440.691 106.881 442.944 108.73C444.988 110.382 447.632 111.211 450.878 111.211C454.47 111.211 457.747 110.652 460.694 109.532L461.96 115.005C458.517 116.469 454.451 117.197 449.76 117.197C444.116 117.197 439.686 115.578 436.463 112.342C433.247 109.107 431.635 104.762 431.635 99.3113C431.635 93.9606 433.133 89.5048 436.133 85.9513C439.273 82.1573 443.517 80.2604 448.857 80.2604C454.102 80.2604 458.073 82.1573 460.769 85.9513C462.905 88.9649 463.978 92.6923 463.978 97.1185ZM456.268 95.0737C456.321 92.7367 455.794 90.7177 454.697 89.013C453.298 86.8202 451.148 85.7257 448.254 85.7257C445.61 85.7257 443.46 86.7943 441.818 88.9391C440.472 90.6437 439.671 92.6886 439.425 95.07H456.268V95.0737Z" fill="white"/>
<path d="M186.721 37.0547C186.721 41.407 185.382 44.6832 182.709 46.8834C180.232 48.9135 176.713 49.9304 172.154 49.9304C169.894 49.9304 167.959 49.8342 166.34 49.642V25.8615C168.452 25.5287 170.728 25.3586 173.185 25.3586C177.528 25.3586 180.801 26.2794 183.008 28.1209C185.481 30.2027 186.721 33.1794 186.721 37.0547ZM182.53 37.162C182.53 34.3405 181.764 32.1773 180.232 30.6687C178.7 29.1637 176.462 28.4093 173.515 28.4093C172.264 28.4093 171.198 28.4907 170.314 28.6608V46.7392C170.804 46.8132 171.699 46.8464 173 46.8464C176.041 46.8464 178.389 46.0218 180.043 44.3726C181.696 42.7234 182.53 40.3199 182.53 37.162Z" fill="white"/>
<path d="M208.942 40.856C208.942 43.5369 208.157 45.7334 206.587 47.4565C204.941 49.2278 202.76 50.1115 200.037 50.1115C197.413 50.1115 195.323 49.2647 193.764 47.5638C192.209 45.8665 191.432 43.7255 191.432 41.1444C191.432 38.445 192.232 36.2301 193.84 34.5106C195.448 32.7911 197.61 31.9296 200.333 31.9296C202.957 31.9296 205.066 32.7764 206.663 34.4736C208.18 36.1228 208.942 38.2528 208.942 40.856ZM204.819 40.9817C204.819 39.3732 204.463 37.9939 203.754 36.8439C202.919 35.4535 201.732 34.7584 200.189 34.7584C198.592 34.7584 197.378 35.4535 196.544 36.8439C195.831 37.9939 195.478 39.3954 195.478 41.052C195.478 42.6605 195.835 44.0398 196.544 45.1898C197.405 46.5802 198.603 47.2753 200.151 47.2753C201.668 47.2753 202.859 46.5691 203.716 45.1528C204.452 43.9806 204.819 42.5903 204.819 40.9817Z" fill="white"/>
<path d="M238.736 32.285L233.142 49.7164H229.501L227.184 42.147C226.596 40.2574 226.118 38.379 225.747 36.5153H225.675C225.33 38.4307 224.852 40.3055 224.237 42.147L221.776 49.7164H218.093L212.833 32.285H216.918L218.939 40.5718C219.428 42.5316 219.83 44.399 220.153 46.1665H220.225C220.521 44.7096 221.01 42.8533 221.7 40.6087L224.237 32.2887H227.476L229.907 40.4312C230.495 42.4169 230.973 44.3287 231.341 46.1702H231.451C231.72 44.3768 232.126 42.465 232.664 40.4312L234.834 32.2887H238.736V32.285Z" fill="white"/>
<path d="M259.34 49.716H255.365V39.732C255.365 36.6554 254.167 35.1172 251.762 35.1172C250.583 35.1172 249.631 35.5387 248.891 36.3855C248.159 37.2323 247.788 38.2307 247.788 39.3733V49.7123H243.813V37.2656C243.813 35.7347 243.764 34.0744 243.669 32.2773H247.162L247.348 35.0025H247.458C247.92 34.1557 248.611 33.4569 249.517 32.8985C250.594 32.2477 251.8 31.9186 253.12 31.9186C254.789 31.9186 256.177 32.4437 257.281 33.4975C258.653 34.7881 259.34 36.7146 259.34 39.2735V49.716V49.716Z" fill="white"/>
<path d="M270.301 49.7159H266.33V24.2863H270.301V49.7159Z" fill="white"/>
<path d="M293.704 40.8558C293.704 43.5366 292.919 45.7331 291.349 47.4563C289.703 49.2275 287.518 50.1113 284.799 50.1113C282.171 50.1113 280.081 49.2645 278.526 47.5635C276.971 45.8662 276.193 43.7252 276.193 41.1442C276.193 38.4448 276.994 36.2298 278.602 34.5104C280.21 32.7909 282.371 31.9293 285.091 31.9293C287.719 31.9293 289.824 32.7761 291.424 34.4734C292.941 36.1226 293.704 38.2525 293.704 40.8558ZM289.577 40.9815C289.577 39.3729 289.221 37.9937 288.512 36.8437C287.681 35.4533 286.49 34.7581 284.95 34.7581C283.35 34.7581 282.136 35.4533 281.306 36.8437C280.593 37.9937 280.24 39.3951 280.24 41.0517C280.24 42.6603 280.597 44.0395 281.306 45.1895C282.167 46.5799 283.365 47.2751 284.913 47.2751C286.43 47.2751 287.617 46.5688 288.474 45.1526C289.213 43.9804 289.577 42.59 289.577 40.9815Z" fill="white"/>
<path d="M312.94 49.7156H309.371L309.075 47.7077H308.965C307.744 49.3089 306.003 50.1113 303.743 50.1113C302.055 50.1113 300.69 49.5825 299.662 48.5323C298.729 47.5783 298.263 46.3913 298.263 44.9825C298.263 42.8526 299.173 41.2292 301.005 40.1051C302.833 38.981 305.404 38.43 308.715 38.4559V38.1305C308.715 35.8342 307.479 34.6879 305.002 34.6879C303.239 34.6879 301.684 35.1205 300.341 35.9784L299.533 33.4343C301.194 32.4322 303.246 31.9293 305.666 31.9293C310.338 31.9293 312.682 34.3329 312.682 39.14V45.5593C312.682 47.301 312.769 48.6876 312.94 49.7156ZM308.814 43.7252V41.0369C304.429 40.963 302.237 42.1352 302.237 44.5498C302.237 45.4595 302.488 46.1399 303 46.5947C303.512 47.0495 304.164 47.2751 304.941 47.2751C305.814 47.2751 306.629 47.0052 307.372 46.469C308.12 45.9291 308.579 45.245 308.749 44.4056C308.791 44.217 308.814 43.9878 308.814 43.7252Z" fill="white"/>
<path d="M335.524 49.7161H331.997L331.811 46.9169H331.701C330.574 49.0468 328.655 50.1118 325.959 50.1118C323.805 50.1118 322.011 49.2872 320.588 47.638C319.166 45.9888 318.457 43.8477 318.457 41.2186C318.457 38.3972 319.227 36.112 320.774 34.3666C322.272 32.7396 324.108 31.9261 326.292 31.9261C328.693 31.9261 330.373 32.7137 331.329 34.2927H331.405V24.2865H335.383V45.0199C335.383 46.7172 335.429 48.2814 335.524 49.7161ZM331.405 42.3649V39.4585C331.405 38.9556 331.367 38.5488 331.295 38.2382C331.071 37.3064 330.59 36.5224 329.858 35.8901C329.118 35.2578 328.227 34.9398 327.199 34.9398C325.716 34.9398 324.555 35.513 323.702 36.663C322.856 37.813 322.428 39.281 322.428 41.0744C322.428 42.7976 322.834 44.1953 323.649 45.2714C324.51 46.4177 325.671 46.9909 327.123 46.9909C328.428 46.9909 329.471 46.5138 330.263 45.5561C331.029 44.6723 331.405 43.6074 331.405 42.3649Z" fill="white"/>
<path d="M369.516 40.856C369.516 43.5369 368.731 45.7334 367.161 47.4565C365.515 49.2278 363.338 50.1115 360.611 50.1115C357.991 50.1115 355.901 49.2647 354.338 47.5638C352.783 45.8665 352.006 43.7255 352.006 41.1444C352.006 38.445 352.806 36.2301 354.414 34.5106C356.022 32.7911 358.184 31.9296 360.911 31.9296C363.532 31.9296 365.644 32.7764 367.237 34.4736C368.754 36.1228 369.516 38.2528 369.516 40.856ZM365.398 40.9817C365.398 39.3732 365.041 37.9939 364.332 36.8439C363.494 35.4535 362.31 34.7584 360.763 34.7584C359.17 34.7584 357.956 35.4535 357.118 36.8439C356.405 37.9939 356.053 39.3954 356.053 41.052C356.053 42.6605 356.409 44.0398 357.118 45.1898C357.979 46.5802 359.178 47.2753 360.725 47.2753C362.242 47.2753 363.437 46.5691 364.294 45.1528C365.026 43.9806 365.398 42.5903 365.398 40.9817Z" fill="white"/>
<path d="M390.888 49.7159H386.917V39.7319C386.917 36.6553 385.719 35.117 383.31 35.117C382.131 35.117 381.179 35.5386 380.443 36.3854C379.707 37.2322 379.339 38.2306 379.339 39.3732V49.7122H375.361V37.2654C375.361 35.7346 375.316 34.0743 375.221 32.2771H378.71L378.896 35.0024H379.006C379.472 34.1556 380.162 33.4567 381.065 32.8984C382.146 32.2476 383.348 31.9185 384.672 31.9185C386.337 31.9185 387.725 32.4435 388.828 33.4974C390.205 34.7879 390.888 36.7145 390.888 39.2733V49.7159V49.7159Z" fill="white"/>
<path d="M417.636 35.1873H413.259V43.6552C413.259 45.8073 414.036 46.8834 415.576 46.8834C416.289 46.8834 416.881 46.8242 417.347 46.7022L417.45 49.6419C416.665 49.9303 415.633 50.0746 414.363 50.0746C412.792 50.0746 411.571 49.6086 410.688 48.6768C409.8 47.745 409.36 46.1771 409.36 43.9769V35.1873H406.747V32.2845H409.36V29.0897L413.255 27.9434V32.2809H417.632V35.1873H417.636Z" fill="white"/>
<path d="M438.678 49.7161H434.7V39.8061C434.7 36.6815 433.501 35.1173 431.101 35.1173C429.257 35.1173 427.998 36.0232 427.308 37.8352C427.19 38.216 427.122 38.6819 427.122 39.2292V49.7124H423.151V24.2865H427.122V34.7919H427.198C428.45 32.8801 430.244 31.9261 432.568 31.9261C434.214 31.9261 435.576 32.4512 436.657 33.5051C438.003 34.8178 438.678 36.7702 438.678 39.3512V49.7161V49.7161Z" fill="white"/>
<path d="M460.383 40.1754C460.383 40.8706 460.33 41.4549 460.235 41.9319H448.315C448.368 43.655 448.937 44.9678 450.041 45.8774C451.049 46.6909 452.35 47.0977 453.943 47.0977C455.707 47.0977 457.315 46.824 458.764 46.2731L459.386 48.9651C457.69 49.6824 455.695 50.0411 453.386 50.0411C450.617 50.0411 448.436 49.2461 446.859 47.656C445.273 46.066 444.488 43.9324 444.488 41.2552C444.488 38.6261 445.22 36.437 446.696 34.6916C448.235 32.828 450.318 31.8961 452.946 31.8961C455.517 31.8961 457.47 32.828 458.79 34.6916C459.856 36.1707 460.383 38.0011 460.383 40.1754ZM456.59 39.1733C456.621 38.0233 456.359 37.0323 455.821 36.1966C455.13 35.1206 454.08 34.5807 452.658 34.5807C451.36 34.5807 450.302 35.1058 449.494 36.1597C448.835 36.9991 448.444 38.0011 448.315 39.1733H456.59Z" fill="white"/>
</svg>
