<svg width="512" height="366" viewBox="0 0 512 366" fill="none" xmlns="http://www.w3.org/2000/svg">
<rect width="512" height="365.714" rx="29.2571" fill="#0060AF"/>
<path fill-rule="evenodd" clip-rule="evenodd" d="M105.306 217.901C105.306 212.993 105.362 199.874 105.234 198.257C105.346 178.736 90.2884 164.965 80.7759 166.038C74.1936 166.577 68.676 169.107 65.7152 176.385C62.9688 183.169 65.4243 192.191 74.5517 194.308C84.3103 196.582 90.0105 198.474 94.1349 201.143C99.1885 204.41 103.314 210.653 103.424 217.909" fill="white"/>
<path fill-rule="evenodd" clip-rule="evenodd" d="M101.227 217.909C101.259 211.617 97.5337 206.054 92.665 203.064C88.3463 200.422 82.5484 198.687 73.1949 196.45C70.3036 195.753 67.2792 194.204 66.3429 192.23C63.8661 194.582 63.4162 199.871 63.852 202.963C64.3584 206.539 68.7925 212.435 75.4691 212.665C79.5463 212.82 84.7012 211.838 87.1733 211.343C91.4378 210.475 98.185 212.993 99.2591 217.901" fill="white"/>
<path fill-rule="evenodd" clip-rule="evenodd" d="M108.754 135.613C97.4329 135.613 87.6554 142.65 87.6895 154.828C87.7249 165.069 96.4612 170.551 99.5798 174.467C104.291 180.367 106.841 187.352 107.104 198.039C107.312 206.544 107.301 214.943 107.347 217.919H109.845C109.802 214.805 109.689 205.889 109.818 197.775C109.987 187.085 112.629 180.367 117.342 174.467C120.488 170.551 129.216 165.069 129.235 154.828C129.279 142.65 119.505 135.613 108.195 135.613" fill="white"/>
<path fill-rule="evenodd" clip-rule="evenodd" d="M111.628 217.901C111.628 212.993 111.569 199.874 111.695 198.257C111.584 178.736 126.632 164.965 136.152 166.038C142.735 166.577 148.245 169.107 151.216 176.385C153.958 183.169 151.49 192.191 142.374 194.308C132.609 196.582 126.917 198.474 122.782 201.143C117.734 204.41 113.897 210.653 113.779 217.909" fill="white"/>
<path fill-rule="evenodd" clip-rule="evenodd" d="M115.703 217.909C115.668 211.617 119.392 206.054 124.247 203.064C128.584 200.422 134.388 198.687 143.733 196.45C146.63 195.753 149.651 194.204 150.571 192.23C153.06 194.582 153.509 199.871 153.073 202.963C152.557 206.539 148.133 212.435 141.468 212.665C137.394 212.82 132.21 211.838 129.749 211.343C125.501 210.475 118.735 212.993 117.656 217.901" fill="white"/>
<path fill-rule="evenodd" clip-rule="evenodd" d="M119.195 238.22L117.748 228.256L121.244 227.756C122.095 227.648 123.131 227.787 123.545 228.289C124.004 228.814 124.144 229.248 124.232 229.937C124.365 230.789 124.104 231.773 123.086 232.264V232.294C124.222 232.294 124.908 233.063 125.108 234.362C125.137 234.637 125.224 235.299 125.137 235.852C124.906 237.168 124.074 237.592 122.668 237.777L119.195 238.22ZM121.446 236.437C121.86 236.38 122.281 236.359 122.609 236.162C123.113 235.852 123.067 235.19 122.997 234.697C122.822 233.617 122.523 233.205 121.307 233.375L120.541 233.486L121.026 236.491L121.446 236.437ZM120.714 231.832C121.177 231.762 121.804 231.709 122.065 231.295C122.203 231.018 122.377 230.798 122.262 230.183C122.119 229.455 121.864 229.002 120.88 229.177L119.965 229.316L120.327 231.87L120.714 231.832Z" fill="white"/>
<path fill-rule="evenodd" clip-rule="evenodd" d="M134.342 232.228C134.37 232.413 134.401 232.62 134.413 232.805C134.696 234.621 134.342 236.127 132.175 236.541C128.971 237.122 128.357 235.246 127.794 232.62L127.494 231.198C127.052 228.685 126.863 226.782 129.986 226.195C131.747 225.893 132.91 226.554 133.394 228.206C133.47 228.452 133.564 228.695 133.599 228.944L131.683 229.317C131.462 228.695 131.169 227.586 130.306 227.679C128.759 227.856 129.27 229.67 129.429 230.429L130.005 233.157C130.178 233.982 130.522 235.3 131.861 235.046C132.948 234.84 132.473 233.244 132.377 232.589" fill="white"/>
<path fill-rule="evenodd" clip-rule="evenodd" d="M137.417 235.243L136.755 224.931L139.329 224.191L144.726 233.159L142.699 233.731L141.42 231.452L139.17 232.089L139.461 234.68L137.417 235.243ZM138.981 230.424L140.608 229.979L138.448 225.807L138.981 230.424Z" fill="white"/>
<path fill-rule="evenodd" clip-rule="evenodd" d="M73.8298 227.447C74.6353 225.016 75.3561 223.226 78.4311 224.02C80.0764 224.455 81.0963 225.137 81.048 226.939C81.0398 227.34 80.8996 227.75 80.8078 228.145L78.894 227.647C79.1448 226.652 79.3038 225.862 78.0036 225.485C76.5008 225.096 76.1346 226.815 75.9273 227.556L75.1488 230.259C74.9015 231.061 74.6047 232.388 75.9273 232.731C77.0202 233.008 77.6821 231.997 78.0778 230.521L76.7399 230.185L77.2028 228.622L80.3508 229.576L78.8563 234.786L77.4077 234.415L77.7339 233.314H77.6927C77.0249 234.215 76.2123 234.31 75.4998 234.18C72.3517 233.378 72.6803 231.439 73.4317 228.848" fill="white"/>
<path fill-rule="evenodd" clip-rule="evenodd" d="M85.5465 231.847L84.5984 236.086L82.4644 235.652L84.7385 225.754L88.3765 226.528C90.5059 226.962 91.1489 227.855 90.8474 229.696C90.6754 230.751 90.1231 231.888 88.7746 231.796L88.7605 231.78C89.9005 232.155 89.9971 232.698 89.798 233.634C89.7121 234.033 89.1197 236.451 89.5283 236.842L89.5425 237.14L87.3342 236.596C87.2424 235.926 87.5557 234.72 87.6793 234.052C87.803 233.461 88.002 232.629 87.366 232.317C86.869 232.066 86.683 232.078 86.12 231.957L85.5465 231.847ZM85.9104 230.314L87.3472 230.679C88.2199 230.799 88.7051 230.373 88.8771 229.378C89.0325 228.467 88.8311 228.111 88.048 227.935L86.5075 227.64L85.9104 230.314Z" fill="white"/>
<path fill-rule="evenodd" clip-rule="evenodd" d="M99.2347 227.965L101.345 228.196L100.436 235.154C99.9943 237.36 99.0898 238.324 96.5153 238.023C93.896 237.71 93.2742 236.587 93.432 234.363L94.3483 227.411L96.4752 227.639L95.5625 234.436C95.4648 235.174 95.2846 236.268 96.6766 236.401C97.9121 236.49 98.1924 235.717 98.3325 234.758" fill="white"/>
<path fill-rule="evenodd" clip-rule="evenodd" d="M103.671 238.403L104.307 228.454L108.361 228.619C110.278 228.709 110.779 230.183 110.72 231.591C110.664 232.447 110.381 233.403 109.589 233.921C108.941 234.362 108.106 234.467 107.333 234.431L106.012 234.362L105.748 238.532L103.671 238.403ZM106.07 232.845L107.144 232.901C108.017 232.931 108.595 232.606 108.671 231.398C108.714 230.239 108.248 230.041 107.117 229.995L106.267 229.967L106.07 232.845Z" fill="white"/>
<path fill-rule="evenodd" clip-rule="evenodd" d="M389.661 145.229L373.545 172.804C367.462 168.147 360.035 164.721 350.558 164.721C328.131 164.721 319.02 180.479 319.02 191.58C319.02 199.821 324.743 211.978 344.699 211.978C353.076 211.978 364.983 206.486 368.41 203.986L352.472 235.977C344.874 237.406 342.377 238.292 335.947 238.48C300.229 239.484 285.797 218.8 285.807 197.666C285.831 169.726 312.182 135.747 355.867 135.747C358.543 135.747 361.817 136.621 364.616 137.588L367.446 134.176" fill="white"/>
<path fill-rule="evenodd" clip-rule="evenodd" d="M456.158 135.042L460.722 235.261H426.759L426.74 218.074H403.58L395.959 235.261H359.125L397.634 163.696L388.95 163.643L405.448 135.042H456.158ZM426.518 165.701L413.426 194.852H426.914L426.518 165.701Z" fill="white"/>
<path fill-rule="evenodd" clip-rule="evenodd" d="M264.365 135.042C281.184 135.13 290.688 143.737 290.688 156.168C290.688 167.629 280.665 177.773 269.661 183.019C280.99 186.946 281.97 196.582 281.97 203.399C281.97 219.871 264.438 235.261 241.648 235.261H191.944L211.332 164.693L203.368 164.65L219.648 135.042C219.648 135.042 250.688 134.953 264.365 135.042V135.042ZM247.864 175.675C251.343 175.675 257.486 174.845 259.022 168.498C260.705 161.607 254.94 161.421 252.174 161.421L242.293 161.381L238.847 175.675H247.864ZM233.894 193.385L229.344 209.856H240.98C245.557 209.856 251.795 207.713 253.324 202.353C254.834 196.979 250.473 193.385 245.912 193.385H233.894Z" fill="white"/>
<path fill-rule="evenodd" clip-rule="evenodd" d="M109.202 247.576C91.9917 247.576 74.307 243.58 56.6447 235.677L56.2113 235.477L56.004 235.06C48.078 219.289 43.8853 202.039 43.8853 185.162C43.8853 168.309 47.906 151.797 55.8368 136.047L56.0559 135.628L56.4975 135.419C72.8361 128.123 90.4112 124.428 108.754 124.428C125.84 124.428 144.088 128.542 161.516 136.346L161.963 136.534L162.17 136.96C170.247 153.023 174.507 170.269 174.507 186.867C174.507 203.399 170.416 219.927 162.329 235.979L162.117 236.4L161.667 236.596C145.577 243.775 127.434 247.576 109.202 247.576M58.2794 233.515C75.4365 241.124 92.55 244.965 109.202 244.965C126.858 244.965 144.417 241.327 160.049 234.431C167.814 218.876 171.75 202.866 171.75 186.867C171.75 170.802 167.642 154.092 159.871 138.501C142.958 131.006 125.294 127.032 108.754 127.032C90.9966 127.032 73.9749 130.582 58.131 137.588C50.5253 152.853 46.6541 168.85 46.6541 185.162C46.6541 201.503 50.676 218.221 58.2794 233.515Z" fill="white"/>
</svg>
