<svg width="512" height="366" viewBox="0 0 512 366" fill="none" xmlns="http://www.w3.org/2000/svg">
<rect width="512" height="365.714" rx="29.2571" fill="white"/>
<path fill-rule="evenodd" clip-rule="evenodd" d="M83.0316 217.165L100.407 238.682H57.388L83.0316 217.165ZM77.5676 210.519L43.9156 238.748L43.9018 169.32L77.5676 210.519ZM158.537 140.608C158.537 140.608 151.15 137.111 142.567 137.622C132.756 138.2 124.547 141.963 119.828 146.928C116.859 150.047 113.576 153.852 111.927 157.985C109.536 163.963 109.026 171.863 109.026 171.863C109.026 171.863 105.594 168.95 101.295 160.463C96.2957 150.592 94.9283 144.612 94.2508 137.79C93.6478 131.804 94.5944 125.884 94.5944 125.884H158.537V140.608ZM158.537 160.291V204.068C158.537 204.068 154.562 205.594 151.319 205.594C148.077 205.594 142.555 205.114 136.142 201.588C129.775 198.091 126.251 193.859 123.519 190.025C120.749 186.126 118.461 180.72 117.781 176.824C117.234 173.707 116.645 165.934 119.828 159.616C121.556 156.187 126.192 150.31 135.118 149.976C142.394 149.696 146.428 151.609 150.126 153.639C157.163 157.508 158.537 160.291 158.537 160.291V160.291ZM88.911 200.994L100.445 191.38C96.769 186.684 95.7976 184.915 91.6885 178.853C87.4815 172.649 83.9575 165.823 80.944 157.814C77.6822 149.138 76.8943 144.267 77.2544 137.79C77.7056 129.55 79.5794 125.884 79.5794 125.884H43.8853L43.9018 145.122C43.9018 145.122 71.2247 179.363 88.911 200.994V200.994ZM121.866 238.651H158.537V211.912C158.537 211.912 149.442 216.085 143.529 216.422C140.009 216.627 136.593 216.763 131.081 215.296C124.953 213.668 121.472 212.081 115.792 207.396C111.231 203.639 106.015 198.091 106.015 198.091L94.4136 207.763C99.7963 214.347 103.771 219.14 104.988 220.43C110.221 225.959 112.438 227.991 115.962 229.961C119.485 231.936 131.254 231.829 131.254 231.829L121.866 238.651Z" fill="#E94E0F"/>
<path fill-rule="evenodd" clip-rule="evenodd" d="M435.88 214.866C435.88 222.614 436.924 235.349 428.248 238.449V238.965H461.2V238.449C452.53 235.179 453.57 222.614 453.57 214.866V149.979C453.57 142.236 452.53 129.498 461.2 126.228V125.712H428.248V126.228C437.094 129.498 435.88 142.063 435.88 149.979V214.866ZM315.049 149.979L374.539 224.852C382.168 234.66 387.548 240.343 399.861 244.471V147.914C399.861 138.277 399.861 131.391 408.882 126.228V125.712H378.354V126.228C387.548 131.391 387.371 138.277 387.371 147.914V213.147L323.896 133.628L321.465 130.186C320.254 128.809 319.561 127.949 318.867 125.885V125.712H293.541V126.228C302.56 131.391 302.56 138.277 302.56 147.914V216.592C302.56 226.228 302.56 233.111 293.371 238.449V238.965H324.07V238.449C314.876 233.111 315.049 226.228 315.049 216.592V149.979ZM218.078 171.324V137.589L229.696 136.382C240.104 135.349 251.201 141.547 251.201 153.424C251.201 167.538 235.071 171.324 223.801 171.324H218.078ZM218.078 225.195V182.681L230.216 181.993C245.479 181.132 261.782 188.363 261.782 205.058C261.782 221.409 247.39 227.949 233.165 226.573L218.078 225.195ZM200.385 214.695C200.385 222.614 201.426 235.179 192.751 238.449V238.965H221.37C234.377 238.965 248.083 239.483 260.221 233.63C271.842 228.121 281.035 216.76 281.035 203.507C281.035 186.642 268.372 176.314 252.762 173.041C262.65 168.74 270.105 162.2 270.105 150.668C270.105 135.349 256.754 125.712 233.861 125.712H192.751V126.228C201.602 129.498 200.385 142.063 200.385 149.806V214.695Z" fill="#005B6A"/>
</svg>
