<svg width="512" height="366" viewBox="0 0 512 366" fill="none" xmlns="http://www.w3.org/2000/svg">
<rect width="512" height="365.714" rx="29.2571" fill="#00529C"/>
<path fill-rule="evenodd" clip-rule="evenodd" d="M151.781 158.654H176.183C186.065 158.654 193.432 163.026 193.432 172.23C193.432 178.979 190.017 182.737 184.084 184.728V184.88C191.155 186.342 194.804 190.177 194.804 196.692C194.804 209.503 183.626 212.185 174.126 212.185H151.781V158.654ZM165.915 179.822H169.871C174.508 179.822 179.3 178.671 179.3 174.142C179.3 169.24 174.737 168.776 170.019 168.776H165.915V179.822ZM165.915 202.063H170.103C175.267 202.063 180.662 201.295 180.662 195.849C180.662 190.025 175.117 189.484 170.251 189.484H165.915V202.063Z" fill="white"/>
<path fill-rule="evenodd" clip-rule="evenodd" d="M213.36 158.654H230.692L251.141 212.185H235.632L231.682 200.761H211.766L207.583 212.185H193.217L213.36 158.654ZM222.03 169.7H221.87L215.033 190.639H228.334L222.03 169.7Z" fill="white"/>
<path fill-rule="evenodd" clip-rule="evenodd" d="M253.109 158.654H271.123L289.064 195.009H289.212L288.987 158.654H301.914V212.185H284.353L265.8 175.604H265.654L266.107 212.185H253.109V158.654Z" fill="white"/>
<path fill-rule="evenodd" clip-rule="evenodd" d="M306.713 158.654H320.85V180.517H321.002L336.96 158.654H353.993L334.378 183.578L355.514 212.185H337.492L321.002 187.875H320.85V212.185H306.713V158.654Z" fill="white"/>
<path fill-rule="evenodd" clip-rule="evenodd" d="M373.042 158.654H397.445C407.324 158.654 414.7 163.026 414.7 172.23C414.7 178.979 411.285 182.737 405.353 184.728V184.88C412.421 186.342 416.07 190.177 416.07 196.692C416.07 209.503 404.895 212.185 395.397 212.185H373.042V158.654ZM387.183 179.822H391.133C395.772 179.822 400.557 178.671 400.557 174.142C400.557 169.24 396.001 168.776 391.29 168.776H387.183V179.822ZM387.183 202.063H391.367C396.531 202.063 401.931 201.295 401.931 195.849C401.931 190.025 396.383 189.484 391.517 189.484H387.183V202.063Z" fill="white"/>
<path fill-rule="evenodd" clip-rule="evenodd" d="M419.203 158.654H444.441C453.864 158.654 461.546 162.947 461.546 172.156C461.546 179.287 458.2 184.042 451.361 185.651V185.802C455.912 187.032 456.222 191.094 458.883 197.614L464.054 212.185H449.309L446.266 202.528C443.376 193.324 441.551 191.017 436.306 191.017H433.34V212.185H419.203V158.654ZM433.34 180.895H437.067C441.627 180.895 447.407 180.739 447.407 174.681C447.407 169.7 442.46 168.776 437.067 168.776H433.34V180.895Z" fill="white"/>
<mask id="mask0_554_2558" style="mask-type:luminance" maskUnits="userSpaceOnUse" x="29" y="131" width="454" height="109">
<path fill-rule="evenodd" clip-rule="evenodd" d="M29.2571 239.22H482.086V131.658H29.2571V239.22Z" fill="white"/>
</mask>
<g mask="url(#mask0_554_2558)">
<path fill-rule="evenodd" clip-rule="evenodd" d="M467.949 212.186H482.086V158.654H467.949V212.186Z" fill="white"/>
<path fill-rule="evenodd" clip-rule="evenodd" d="M119.516 131.657H45.5196C36.5378 131.657 29.2566 139.185 29.2566 148.474V148.651V222.407C29.2566 231.605 36.4036 239.081 45.2697 239.219H119.477C128.461 239.219 135.745 231.691 135.745 222.407L135.779 148.474C135.779 139.185 128.501 131.657 119.516 131.657V131.657ZM54.3163 230.601L50.2789 230.645C45.3923 230.645 41.4313 226.595 41.4313 221.597L41.4082 220.885V152.606L41.4336 148.929C41.6164 144.092 45.2582 140.199 50.029 140.199H58.2357C65.672 140.199 71.7038 146.723 71.7038 154.422C71.7038 158.227 70.2253 161.682 67.8306 164.193L46.8916 185.63L66.5165 205.791C69.0476 208.422 70.577 211.882 70.577 215.67C70.577 223.918 63.2958 230.601 54.3163 230.601V230.601ZM114.648 230.533L78.0595 230.517C78.0595 230.517 82.2913 221.291 82.2913 215.582C82.2913 208.621 79.9822 202.4 76.3705 198.284L63.8557 185.412L76.6296 172.097C80.4311 168.491 82.9576 162.09 82.9576 154.8C82.9576 149.027 81.3751 143.912 78.8277 140.199H87.6938C95.1323 140.199 101.164 146.723 101.164 154.422C101.164 158.227 99.688 161.682 97.2933 164.193L76.7546 185.405L119.412 229.294C118.061 230.153 116.356 230.533 114.648 230.533V230.533ZM123.584 216.83L93.013 185.396L107.573 170.466C110.539 166.728 112.418 161.096 112.418 154.8C112.418 148.99 110.812 143.751 108.242 140.035L114.759 140.231C119.646 140.231 123.607 144.288 123.607 149.284L123.584 216.83Z" fill="white"/>
</g>
</svg>
