<svg width="512" height="148" viewBox="0 0 512 148" fill="none" xmlns="http://www.w3.org/2000/svg">
<path d="M493.037 147.911H18.963C8.53807 147.911 0 139.587 0 129.422V18.4889C0 8.32467 8.53807 4.94649e-05 18.963 4.94649e-05H493.037C503.462 4.94649e-05 512 8.32467 512 18.4889V129.422C512 139.587 503.462 147.911 493.037 147.911Z" fill="black"/>
<path d="M493.037 2.96289C501.817 2.96289 508.961 9.92858 508.961 18.4889V129.422C508.961 137.983 501.817 144.948 493.037 144.948H18.963C10.1831 144.948 3.03881 137.983 3.03881 129.422V18.4889C3.03881 9.92858 10.1831 2.96289 18.963 2.96289H493.037ZM493.037 4.94649e-05H18.963C8.53807 4.94649e-05 0 8.32467 0 18.4889V129.422C0 139.587 8.53807 147.911 18.963 147.911H493.037C503.462 147.911 512 139.587 512 129.422V18.4889C512 8.32467 503.462 4.94649e-05 493.037 4.94649e-05Z" fill="#A6A6A6"/>
<path d="M179.835 37.8794C179.835 40.967 178.887 43.4399 177.019 45.2842C174.872 47.4705 172.074 48.5706 168.647 48.5706C165.371 48.5706 162.574 47.452 160.28 45.2472C157.98 43.01 156.833 40.2644 156.833 36.978C156.833 33.6916 157.98 30.946 160.28 28.7274C162.574 26.5041 165.371 25.3855 168.647 25.3855C170.278 25.3855 171.833 25.7137 173.317 26.3238C174.796 26.9386 176 27.7706 176.872 28.7967L174.89 30.7473C173.369 28.9955 171.297 28.1311 168.647 28.1311C166.258 28.1311 164.186 28.9446 162.427 30.5855C160.687 32.231 159.815 34.3619 159.815 36.978C159.815 39.5942 160.687 41.7435 162.427 43.389C164.186 45.0114 166.258 45.8434 168.647 45.8434C171.183 45.8434 173.317 45.0114 175 43.3706C176.109 42.2843 176.739 40.7867 176.905 38.8731H168.647V36.2015H179.664C179.797 36.7793 179.835 37.3386 179.835 37.8794V37.8794Z" fill="white" stroke="white" stroke-width="0.563471" stroke-miterlimit="10"/>
<path d="M197.314 28.6163H186.965V35.6421H196.295V38.3137H186.965V45.3395H197.314V48.062H184.035V25.8938H197.314V28.6163Z" fill="white" stroke="white" stroke-width="0.563471" stroke-miterlimit="10"/>
<path d="M209.65 48.062H206.72V28.6163H200.372V25.8938H216.002V28.6163H209.65V48.062V48.062Z" fill="white" stroke="white" stroke-width="0.563471" stroke-miterlimit="10"/>
<path d="M227.313 48.062V25.8938H230.239V48.062H227.313Z" fill="white" stroke="white" stroke-width="0.563471" stroke-miterlimit="10"/>
<path d="M243.204 48.062H240.298V28.6163H233.927V25.8938H249.576V28.6163H243.204V48.062Z" fill="white" stroke="white" stroke-width="0.563471" stroke-miterlimit="10"/>
<path d="M279.168 45.2102C276.926 47.452 274.148 48.5706 270.834 48.5706C267.501 48.5706 264.723 47.452 262.481 45.2102C260.243 42.9731 259.129 40.2275 259.129 36.978C259.129 33.7286 260.243 30.983 262.481 28.7459C264.723 26.5041 267.501 25.3855 270.834 25.3855C274.129 25.3855 276.907 26.5041 279.149 28.7643C281.406 31.02 282.52 33.7471 282.52 36.978C282.52 40.2275 281.406 42.9731 279.168 45.2102ZM264.647 43.3521C266.335 45.0115 268.388 45.8434 270.834 45.8434C273.261 45.8434 275.333 45.0115 277.002 43.3521C278.684 41.6927 279.538 39.5619 279.538 36.978C279.538 34.3942 278.684 32.2634 277.002 30.604C275.333 28.9446 273.261 28.1126 270.834 28.1126C268.388 28.1126 266.335 28.9446 264.647 30.604C262.964 32.2634 262.111 34.3942 262.111 36.978C262.111 39.5619 262.964 41.6927 264.647 43.3521V43.3521Z" fill="white" stroke="white" stroke-width="0.563471" stroke-miterlimit="10"/>
<path d="M286.63 48.062V25.8938H290.185L301.241 43.1347H301.369L301.241 38.873V25.8938H304.166V48.062H301.113L289.536 29.9706H289.408L289.536 34.2508V48.062H286.63V48.062Z" fill="white" stroke="white" stroke-width="0.563471" stroke-miterlimit="10"/>
<path d="M258.41 80.4359C249.502 80.4359 242.225 87.0457 242.225 96.1653C242.225 105.211 249.502 111.89 258.41 111.89C267.336 111.89 274.614 105.211 274.614 96.1653C274.614 87.0457 267.336 80.4359 258.41 80.4359ZM258.41 105.696C253.522 105.696 249.317 101.763 249.317 96.1653C249.317 90.4938 253.522 86.6297 258.41 86.6297C263.297 86.6297 267.521 90.4938 267.521 96.1653C267.521 101.763 263.297 105.696 258.41 105.696V105.696ZM223.096 80.4359C214.169 80.4359 206.911 87.0457 206.911 96.1653C206.911 105.211 214.169 111.89 223.096 111.89C232.018 111.89 239.281 105.211 239.281 96.1653C239.281 87.0457 232.018 80.4359 223.096 80.4359ZM223.096 105.696C218.203 105.696 213.984 101.763 213.984 96.1653C213.984 90.4938 218.203 86.6297 223.096 86.6297C227.984 86.6297 232.189 90.4938 232.189 96.1653C232.189 101.763 227.984 105.696 223.096 105.696ZM181.074 85.2569V91.9406H197.444C196.965 95.6754 195.685 98.421 193.722 100.335C191.333 102.646 187.611 105.211 181.074 105.211C171 105.211 163.111 97.2839 163.111 87.4617C163.111 77.6395 171 69.7123 181.074 69.7123C186.521 69.7123 190.484 71.7877 193.409 74.4779L198.24 69.7678C194.149 65.9591 188.707 63.0332 181.074 63.0332C167.259 63.0332 155.649 73.9925 155.649 87.4617C155.649 100.931 167.259 111.89 181.074 111.89C188.541 111.89 194.149 109.505 198.558 105.031C203.076 100.626 204.484 94.432 204.484 89.4307C204.484 87.8777 204.351 86.4494 204.114 85.2569H181.074ZM352.907 90.4384C351.575 86.9209 347.464 80.4359 339.092 80.4359C330.796 80.4359 323.889 86.8099 323.889 96.1653C323.889 104.975 330.725 111.89 339.889 111.89C347.299 111.89 351.575 107.485 353.333 104.92L347.834 101.347C346 103.963 343.501 105.696 339.889 105.696C336.3 105.696 333.726 104.092 332.076 100.931L353.651 92.2272L352.907 90.4384V90.4384ZM330.91 95.6754C330.725 89.611 335.741 86.5049 339.334 86.5049C342.15 86.5049 344.539 87.8777 345.336 89.8421L330.91 95.6754V95.6754ZM313.374 110.933H320.466V64.7111H313.374V110.933ZM301.759 83.9395H301.522C299.929 82.0999 296.89 80.4359 293.041 80.4359C284.963 80.4359 277.576 87.3507 277.576 96.2162C277.576 105.031 284.963 111.89 293.041 111.89C296.89 111.89 299.929 110.212 301.522 108.317H301.759V110.573C301.759 116.586 298.464 119.817 293.15 119.817C288.817 119.817 286.129 116.767 285.019 114.201L278.852 116.711C280.63 120.88 285.337 126.011 293.15 126.011C301.465 126.011 308.481 121.241 308.481 109.634V81.3927H301.759V83.9395V83.9395ZM293.648 105.696C288.76 105.696 284.669 101.707 284.669 96.2162C284.669 90.6741 288.76 86.6297 293.648 86.6297C298.464 86.6297 302.262 90.6741 302.262 96.2162C302.262 101.707 298.464 105.696 293.648 105.696V105.696ZM386.111 64.7111H369.149V110.933H376.222V93.4197H386.111C393.966 93.4197 401.67 87.8777 401.67 79.0631C401.67 70.2531 393.947 64.7111 386.111 64.7111V64.7111ZM386.296 86.9902H376.222V71.1406H386.296C391.577 71.1406 394.592 75.4162 394.592 79.0631C394.592 82.6407 391.577 86.9902 386.296 86.9902ZM430.02 80.3481C424.909 80.3481 419.595 82.5482 417.409 87.4247L423.686 89.99C425.037 87.4247 427.521 86.5927 430.148 86.5927C433.817 86.5927 437.539 88.742 437.595 92.5369V93.0222C436.315 92.3011 433.575 91.2334 430.205 91.2334C423.444 91.2334 416.556 94.8618 416.556 101.633C416.556 107.827 422.093 111.816 428.318 111.816C433.077 111.816 435.704 109.722 437.354 107.286H437.595V110.859H444.427V93.1285C444.427 84.9333 438.15 80.3481 430.02 80.3481ZM429.166 105.678C426.853 105.678 423.629 104.559 423.629 101.763C423.629 98.1852 427.649 96.8124 431.129 96.8124C434.244 96.8124 435.704 97.4826 437.595 98.3655C437.041 102.646 433.262 105.678 429.166 105.678V105.678ZM469.316 81.3603L461.185 101.398H460.944L452.538 81.3603H444.91L457.54 109.362L450.334 124.943H457.725L477.185 81.3603H469.316V81.3603ZM405.557 110.933H412.65V64.7111H405.557V110.933Z" fill="white"/>
<path d="M39.5762 27.8768C38.4621 29.0138 37.8174 30.7841 37.8174 33.0768V114.853C37.8174 117.146 38.4621 118.916 39.5762 120.053L39.8512 120.303L86.8508 74.4965V73.4149L39.8512 27.6087L39.5762 27.8768Z" fill="url(#paint0_linear_465_2542)"/>
<path d="M102.498 89.7731L86.8486 74.4966V73.415L102.517 58.1386L102.868 58.3373L121.423 68.631C126.718 71.5523 126.718 76.3594 121.423 79.2991L102.868 89.5743L102.498 89.7731V89.7731Z" fill="url(#paint1_linear_465_2542)"/>
<path d="M102.868 89.5742L86.8489 73.9557L39.5742 120.053C41.333 121.856 44.2012 122.073 47.4628 120.27L102.868 89.5742" fill="url(#paint2_linear_465_2542)"/>
<path d="M102.868 58.3371L47.4628 27.6409C44.2012 25.8567 41.333 26.074 39.5742 27.8766L86.8489 73.9556L102.868 58.3371Z" fill="url(#paint3_linear_465_2542)"/>
<defs>
<linearGradient id="paint0_linear_465_2542" x1="82.6778" y1="115.705" x2="20.6401" y2="52.0764" gradientUnits="userSpaceOnUse">
<stop stop-color="#00A0FF"/>
<stop offset="0.0066" stop-color="#00A1FF"/>
<stop offset="0.2601" stop-color="#00BEFF"/>
<stop offset="0.5122" stop-color="#00D2FF"/>
<stop offset="0.7604" stop-color="#00DFFF"/>
<stop offset="1" stop-color="#00E3FF"/>
</linearGradient>
<linearGradient id="paint1_linear_465_2542" x1="128.318" y1="73.9507" x2="36.5494" y2="73.9507" gradientUnits="userSpaceOnUse">
<stop stop-color="#FFE000"/>
<stop offset="0.4087" stop-color="#FFBD00"/>
<stop offset="0.7754" stop-color="#FFA500"/>
<stop offset="1" stop-color="#FF9C00"/>
</linearGradient>
<linearGradient id="paint2_linear_465_2542" x1="94.1572" y1="65.4653" x2="10.029" y2="-20.82" gradientUnits="userSpaceOnUse">
<stop stop-color="#FF3A44"/>
<stop offset="1" stop-color="#C31162"/>
</linearGradient>
<linearGradient id="paint3_linear_465_2542" x1="27.6742" y1="147.26" x2="65.2412" y2="108.73" gradientUnits="userSpaceOnUse">
<stop stop-color="#32A071"/>
<stop offset="0.0685" stop-color="#2DA771"/>
<stop offset="0.4762" stop-color="#15CF74"/>
<stop offset="0.8009" stop-color="#06E775"/>
<stop offset="1" stop-color="#00F076"/>
</linearGradient>
</defs>
</svg>
