<svg width="512" height="366" viewBox="0 0 512 366" fill="none" xmlns="http://www.w3.org/2000/svg">
<rect width="512" height="365.714" rx="29.2571" fill="#003D79"/>
<path fill-rule="evenodd" clip-rule="evenodd" d="M37.0337 193.69C37.0337 187.131 36.9182 181.627 36.5718 176.72H48.5918L49.1554 185.151H49.4927C52.217 180.696 57.1992 175.426 66.4926 175.426C73.7464 175.426 79.4123 179.651 81.7879 185.969H82.0212C83.951 182.809 86.21 180.47 88.8143 178.825C91.877 176.604 95.3913 175.426 99.9243 175.426C109.101 175.426 118.387 181.863 118.387 200.127V233.718H104.791V202.237C104.791 192.757 101.623 187.131 94.9409 187.131C90.1736 187.131 86.6569 190.649 85.1937 194.748C84.8495 196.148 84.51 197.906 84.51 199.533V233.718H70.9089V200.71C70.9089 192.757 67.8542 187.131 61.3938 187.131C56.1806 187.131 52.6721 191.352 51.4225 195.323C50.852 196.737 50.6233 198.371 50.6233 200.006V233.718H37.0337V193.69Z" fill="white"/>
<path fill-rule="evenodd" clip-rule="evenodd" d="M171.362 220.027C171.362 225.174 171.588 230.199 172.155 233.72H159.573L158.67 227.401H158.326C154.928 231.853 149.149 235.009 142.011 235.009C130.903 235.009 124.673 226.705 124.673 218.038C124.673 203.636 137.02 196.386 157.419 196.502V195.562C157.419 191.815 155.944 185.615 146.2 185.615C140.759 185.615 135.09 187.372 131.353 189.826L128.63 180.47C132.717 177.89 139.862 175.429 148.581 175.429C166.265 175.429 171.362 187.024 171.362 199.425V220.027ZM157.759 205.866C147.902 205.63 138.498 207.853 138.498 216.516C138.498 222.129 142.011 224.709 146.431 224.709C151.977 224.709 156.063 220.962 157.306 216.867C157.643 215.814 157.759 214.639 157.759 213.706V205.866Z" fill="white"/>
<path fill-rule="evenodd" clip-rule="evenodd" d="M180.998 193.69C180.998 187.131 180.874 181.627 180.543 176.72H192.771L193.455 185.263H193.79C196.172 180.821 202.178 175.426 211.354 175.426C220.99 175.426 230.961 181.863 230.961 199.893V233.718H217.025V201.536C217.025 193.337 214.079 187.131 206.485 187.131C200.933 187.131 197.081 191.229 195.604 195.562C195.158 196.852 195.041 198.612 195.041 200.239V233.718H180.998V193.69Z" fill="white"/>
<path fill-rule="evenodd" clip-rule="evenodd" d="M291.39 153.817V217.679C291.39 223.531 291.612 229.862 291.84 233.72H279.374L278.816 224.709H278.585C275.297 231.033 268.601 235.009 260.564 235.009C247.425 235.009 236.997 223.423 236.997 205.866C236.881 186.786 248.439 175.429 261.696 175.429C269.286 175.429 274.73 178.711 277.219 182.928H277.449V153.817H291.39ZM277.449 200.473C277.449 199.315 277.332 197.903 277.114 196.737C275.866 191.118 271.444 186.551 265.097 186.551C256.146 186.551 251.159 194.748 251.159 205.4C251.159 215.814 256.146 223.423 264.984 223.423C270.648 223.423 275.637 219.445 276.995 213.243C277.332 211.95 277.449 210.547 277.449 209.02V200.473Z" fill="white"/>
<path fill-rule="evenodd" clip-rule="evenodd" d="M301.238 233.717H315.303V176.723H301.238V233.717Z" fill="white"/>
<path fill-rule="evenodd" clip-rule="evenodd" d="M325.153 195.094C325.153 187.372 325.035 181.863 324.697 176.718H336.824L337.268 187.6H337.738C340.453 179.524 346.914 176.718 352.804 176.718C354.161 176.718 354.953 176.478 356.089 176.718V189.363C354.953 189.129 353.709 188.895 352.009 188.895C345.324 188.895 340.788 193.339 339.543 199.772C339.323 201.061 339.094 202.589 339.094 204.235V233.72H325.153V195.094Z" fill="white"/>
<path fill-rule="evenodd" clip-rule="evenodd" d="M362.549 233.717H376.593V176.723H362.549V233.717Z" fill="white"/>
<path fill-rule="evenodd" clip-rule="evenodd" d="M359.226 107.81C350.79 112.856 330.891 124.644 323.463 129.034V129.034C318.935 131.416 308.45 132.456 302.52 124.197V124.197C302.414 124.048 294.632 114.005 294.314 113.626V113.626C294.092 113.359 289.061 105.652 277.852 105.411V105.411C276.195 105.37 267.961 105.325 259.927 110.042V110.042C249.247 116.344 224.41 131.011 224.41 131.011V131.011C224.403 131.011 224.403 131.024 224.391 131.024V131.024C214.181 137.057 206.227 141.755 206.227 141.755V141.755L215.625 153.678C220.022 159.317 229.936 163.679 238.535 158.581V158.581C238.535 158.581 270.304 139.578 270.421 139.523V139.523C284.161 131.739 294.763 131.739 301.799 134.636V134.636C308.115 137.393 313.61 144.261 313.61 144.261V144.261C313.61 144.261 320.791 153.454 322.058 155.062V155.062C326.144 160.257 332.907 158.216 332.907 158.216V158.216C332.907 158.216 335.413 157.923 339.191 155.606V155.606C339.191 155.606 369.964 137.176 369.984 137.17V137.17C379.755 131.248 388.717 130.142 393.298 130.578V130.578C407.644 131.924 412.1 142.276 418.32 149.498V149.498C421.984 153.746 425.289 156.158 430.344 156.037V156.037C433.665 155.964 437.418 153.883 437.971 153.508V153.508L474.821 131.541C474.821 131.541 471.04 125.659 463.296 116.507V116.507C456.366 108.342 449.005 112.036 443.136 115.039V115.039C440.67 116.299 431.736 122.437 422.885 126.72V126.72C416.578 129.77 407.519 128.853 402.554 122.516V122.516C402.257 122.131 394.225 112.086 393.381 110.851V110.851C390.139 106.656 383.814 102.9 375.707 102.9V102.9C370.778 102.9 365.185 104.288 359.226 107.81" fill="url(#paint0_linear_554_2585)"/>
<defs>
<linearGradient id="paint0_linear_554_2585" x1="206.227" y1="160.839" x2="474.821" y2="160.839" gradientUnits="userSpaceOnUse">
<stop stop-color="#FFCA06"/>
<stop offset="0.330844" stop-color="#FBAA18"/>
<stop offset="0.694742" stop-color="#FFC907"/>
<stop offset="1" stop-color="#FAA619"/>
</linearGradient>
</defs>
</svg>
