<svg width="512" height="366" viewBox="0 0 512 366" fill="none" xmlns="http://www.w3.org/2000/svg">
<rect width="512" height="365.714" rx="29.2571" fill="#EC1F30"/>
<path fill-rule="evenodd" clip-rule="evenodd" d="M233.183 113.333L208.814 97.0579C212.778 91.6554 217.635 86.9651 223.185 83.2088L244.329 104.819C239.962 106.721 236.139 109.671 233.183 113.333V113.333ZM269.296 157.722C271.373 156.654 273.301 155.357 275.048 153.852C276.19 152.898 277.252 151.863 278.226 150.7C282.613 145.567 285.267 138.928 285.267 131.65C285.267 115.496 272.165 102.393 256.007 102.393C252.62 102.393 249.355 102.964 246.338 104.019L225.92 81.455C234.708 76.1734 245.001 73.1429 256.007 73.1429C288.317 73.1429 314.514 99.3359 314.514 131.664C314.514 163.992 288.317 190.171 256.007 190.171C239.928 190.171 225.369 183.7 214.793 173.211H286.564L211.34 169.468L290.837 168.964L207.644 164.63L239.592 164.14C239.592 164.14 256.363 164.644 269.296 157.722V157.722ZM202.901 156.278C202.39 155.176 201.907 154.04 201.463 152.911H218.899L222.13 156.318H248.233L242.502 162.359H210.379C209.364 159.066 206.442 156.58 202.901 156.278V156.278ZM200.751 150.963C198.648 144.922 197.486 138.437 197.486 131.664C197.486 127.901 197.842 124.225 198.52 120.671L226.766 130.602L226.753 131.65C226.753 138.598 229.172 144.989 233.223 150.015C231.14 145.513 229.689 140.48 229.689 135.118C229.689 133.962 229.756 132.813 229.897 131.691L260.105 142.301V150.963H200.751ZM260.105 131.314L236.932 115.839C239.841 112.52 243.476 109.886 247.595 108.139L260.105 120.926V131.314ZM260.105 141.246L230.173 129.803C231.026 125.179 232.968 120.912 235.729 117.297L260.105 132.47V141.246ZM226.907 128.559L199.105 117.936C200.697 111.283 203.445 105.081 207.1 99.5173L231.96 114.972C229.232 118.91 227.445 123.547 226.907 128.559V128.559Z" fill="white"/>
<path fill-rule="evenodd" clip-rule="evenodd" d="M80.5221 231.201C73.1753 231.201 66.1861 236.409 66.1861 248.099C66.1861 258.866 70.5422 265.668 80.2556 265.668C86.9717 265.668 94.8711 261.114 94.8711 248.432C94.8711 237.158 89.8779 231.201 80.5221 231.201M79.4363 277.512C60.4582 277.512 51.2 266.738 51.2 249.168C51.2 230.952 64.9118 219.429 81.6144 219.429C97.7773 219.429 109.857 227.96 109.857 247.599C109.857 265.982 96.4185 277.512 79.4363 277.512" fill="white"/>
<path fill-rule="evenodd" clip-rule="evenodd" d="M144.927 277.172C122.308 277.172 116.229 263.183 116.229 250.501C116.229 232.348 127.034 220.095 147.28 220.095C151.552 220.095 155.992 220.588 159.815 221.504L158.177 233.181C154.718 232.271 150.824 231.695 147.007 231.695C137.112 231.695 131.755 238.241 131.755 248.342C131.755 259.359 136.663 265.418 147.742 265.418C150.921 265.418 155.537 264.669 158.45 263.426L160.088 274.943C155.635 276.359 150.193 277.172 144.927 277.172" fill="white"/>
<path fill-rule="evenodd" clip-rule="evenodd" d="M185.347 252.576C184.619 252.576 181.713 252.576 180.627 252.653V265.835C181.804 265.982 183.897 266.078 186.075 266.078C192.343 266.078 195.88 263.426 195.88 259.116C195.88 254.805 191.972 252.576 185.347 252.576M186.524 230.529C184.353 230.529 182.35 230.612 180.627 230.695V242.962C181.804 243.038 183.169 243.038 184.801 243.038C191.699 243.038 195.061 240.476 195.061 236.249C195.061 232.681 192.434 230.529 186.524 230.529M185.796 276.608C182.175 276.608 175.354 276.423 166.46 276.423V220.588C172.084 220.345 181.264 220.178 188.8 220.178C202.141 220.178 210.04 224.899 210.04 234.263C210.04 239.483 206.412 244.204 201.146 246.356V246.606C207.414 248.099 211.042 253.402 211.042 258.949C211.042 267.897 203.87 276.608 185.796 276.608" fill="white"/>
<path fill-rule="evenodd" clip-rule="evenodd" d="M246.098 277.172C223.492 277.172 217.413 263.183 217.413 250.501C217.413 232.348 228.219 220.095 248.465 220.095C252.73 220.095 257.177 220.588 260.987 221.504L259.361 233.181C255.915 232.271 252.002 231.695 248.198 231.695C238.296 231.695 232.939 238.241 232.939 248.342C232.939 259.359 237.835 265.418 248.907 265.418C252.099 265.418 256.735 264.669 259.634 263.426L261.266 274.943C256.819 276.359 251.371 277.172 246.098 277.172" fill="white"/>
<path fill-rule="evenodd" clip-rule="evenodd" d="M322.537 276.423L308.097 252.326C305.471 248.022 303.377 243.705 301.745 240.066C302.018 244.204 302.2 249.841 302.2 255.138V276.423H288.573V220.505H306.738L320.177 242.628C322.895 247.272 325.437 252.076 327.622 256.387C327.173 251.57 326.991 244.204 326.991 238.901V220.505H340.605V276.423H322.537Z" fill="white"/>
<path fill-rule="evenodd" clip-rule="evenodd" d="M346.977 276.423H361.137V220.505H346.977V276.423Z" fill="white"/>
<path fill-rule="evenodd" clip-rule="evenodd" d="M381.942 277.422C377.677 277.422 373.315 277.012 369.414 276.173L370.142 264.246C373.594 265.418 378.587 266.328 383.035 266.328C388.203 266.328 391.935 264.336 391.935 260.358C391.935 250.827 367.509 255.727 367.509 236.998C367.509 226.468 376.5 219.512 391.838 219.512C395.108 219.512 399.198 219.839 403.007 220.505L402.188 231.695C398.742 230.779 394.932 230.196 391.285 230.196C385.395 230.196 382.677 232.521 382.677 235.666C382.677 244.364 407.097 241.059 407.097 258.533C407.097 269.396 397.559 277.422 381.942 277.422" fill="white"/>
<path fill-rule="evenodd" clip-rule="evenodd" d="M430.365 230.612C429.391 230.612 428.405 230.612 427.418 230.695V247.099C428.309 247.189 429.116 247.272 429.82 247.272C435.642 247.189 440.03 244.114 440.03 238.651C440.03 233.93 437.256 230.612 430.365 230.612M430.627 257.956C429.916 257.956 428.674 257.956 427.418 257.873V276.423H413.468V220.505C418.644 220.261 424.37 220.095 430.627 220.095C446.025 220.095 454.428 226.551 454.428 238.068C454.428 248.925 446.025 257.956 430.627 257.956" fill="white"/>
</svg>
